<?xml version="1.0" encoding="UTF-8"?>
<svg xmlns="http://www.w3.org/2000/svg" xmlns:xlink="http://www.w3.org/1999/xlink" width="80pt" height="80pt" viewBox="0 0 80 80" version="1.1">
<defs>
<linearGradient id="linear0" gradientUnits="userSpaceOnUse" x1="0.12959" y1="0.117" x2="0.79639" y2="0.78453" gradientTransform="matrix(31.410156,0,0,31.546875,18.890625,18.820312)">
<stop offset="0" style="stop-color:rgb(21.960784%,49.411765%,72.156863%);stop-opacity:1;"/>
<stop offset="1" style="stop-color:rgb(21.176471%,41.176471%,58.039216%);stop-opacity:1;"/>
</linearGradient>
<linearGradient id="linear1" gradientUnits="userSpaceOnUse" x1="0.19128" y1="0.20316" x2="0.90742" y2="0.88773" gradientTransform="matrix(31.410156,0,0,31.546875,29.859375,29.5)">
<stop offset="0" style="stop-color:rgb(100%,87.843137%,32.156863%);stop-opacity:1;"/>
<stop offset="1" style="stop-color:rgb(100%,76.470588%,19.215686%);stop-opacity:1;"/>
</linearGradient>
</defs>
<g id="surface1">
<path style=" stroke:none;fill-rule:evenodd;fill:url(#linear0);" d="M 39.929688 18.820312 C 29.171875 18.820312 29.84375 23.496094 29.84375 23.496094 L 29.855469 28.335938 L 40.121094 28.335938 L 40.121094 29.789062 L 25.777344 29.789062 C 25.777344 29.789062 18.890625 29.007812 18.890625 39.878906 C 18.890625 50.753906 24.902344 50.367188 24.902344 50.367188 L 28.488281 50.367188 L 28.488281 45.320312 C 28.488281 45.320312 28.292969 39.304688 34.398438 39.304688 L 44.582031 39.304688 C 44.582031 39.304688 50.300781 39.394531 50.300781 33.765625 L 50.300781 24.457031 C 50.300781 24.457031 51.171875 18.820312 39.929688 18.820312 Z M 34.265625 22.078125 C 34.757812 22.078125 35.226562 22.273438 35.574219 22.621094 C 35.921875 22.964844 36.113281 23.4375 36.113281 23.925781 C 36.113281 24.945312 35.289062 25.773438 34.265625 25.773438 C 33.246094 25.773438 32.421875 24.945312 32.421875 23.925781 C 32.417969 23.4375 32.613281 22.964844 32.960938 22.621094 C 33.304688 22.273438 33.777344 22.078125 34.265625 22.078125 Z M 34.265625 22.078125 "/>
<path style=" stroke:none;fill-rule:evenodd;fill:url(#linear1);" d="M 40.234375 61.046875 C 50.992188 61.046875 50.320312 56.375 50.320312 56.375 L 50.308594 51.53125 L 40.042969 51.53125 L 40.042969 50.078125 L 54.386719 50.078125 C 54.386719 50.078125 61.269531 50.859375 61.269531 39.988281 C 61.269531 29.117188 55.261719 29.5 55.261719 29.5 L 51.675781 29.5 L 51.675781 34.546875 C 51.675781 34.546875 51.867188 40.566406 45.761719 40.566406 L 35.582031 40.566406 C 35.582031 40.566406 29.859375 40.472656 29.859375 46.101562 L 29.859375 55.414062 C 29.859375 55.414062 28.992188 61.046875 40.234375 61.046875 Z M 45.894531 57.792969 C 45.402344 57.792969 44.933594 57.597656 44.585938 57.25 C 44.242188 56.902344 44.046875 56.433594 44.046875 55.941406 C 44.046875 54.921875 44.875 54.09375 45.894531 54.09375 C 46.914062 54.09375 47.742188 54.921875 47.742188 55.941406 C 47.742188 56.433594 47.546875 56.902344 47.203125 57.25 C 46.855469 57.597656 46.382812 57.792969 45.894531 57.792969 Z M 45.894531 57.792969 "/>
</g>
</svg>
