<?xml version="1.0" encoding="UTF-8"?>
<svg width="331px" height="330px" viewBox="0 0 331 330" version="1.1" xmlns="http://www.w3.org/2000/svg" xmlns:xlink="http://www.w3.org/1999/xlink">
    <!-- Generator: Sketch 52.2 (67145) - http://www.bohemiancoding.com/sketch -->
    <title>nodejs-development</title>
    <desc>Created with Sketch.</desc>
    <defs>
        <rect id="path-1" x="0" y="0" width="369" height="369"></rect>
        <rect id="path-3" x="0" y="0" width="369" height="369"></rect>
        <rect id="path-5" x="0" y="0" width="369" height="369"></rect>
        <rect id="path-7" x="0" y="0" width="369" height="369"></rect>
        <rect id="path-9" x="0" y="0" width="369" height="369"></rect>
        <rect id="path-11" x="0" y="0" width="369" height="369"></rect>
        <rect id="path-13" x="0" y="0" width="369" height="369"></rect>
        <path d="M27.4932211,0.987788991 L1.76930526,15.9337064 C0.807115789,16.4924495 0.215515789,17.5244954 0.215515789,18.6425963 L0.215515789,48.5565596 C0.215515789,49.6734312 0.807115789,50.7060917 1.76869474,51.2660642 L27.492,66.2236606 C28.4541895,66.7824037 29.6386105,66.7824037 30.6001895,66.2236606 L56.318,51.2660642 C57.2789684,50.7060917 57.8705684,49.6734312 57.8705684,48.5565596 L57.8705684,18.641367 C57.8705684,17.5244954 57.2789684,16.4924495 56.3167789,15.9337064 L30.5995789,0.987788991 C30.1190947,0.708724771 29.5824421,0.568577982 29.0464,0.568577982 C28.5097474,0.568577982 27.9737053,0.708724771 27.4932211,0.987788991" id="path-15"></path>
        <linearGradient x1="59.6346006%" y1="30.8037253%" x2="38.4383292%" y2="73.3840167%" id="linearGradient-17">
            <stop stop-color="#41873F" offset="0%"></stop>
            <stop stop-color="#418B3D" offset="32.88%"></stop>
            <stop stop-color="#419637" offset="63.52%"></stop>
            <stop stop-color="#3FA92D" offset="93.19%"></stop>
            <stop stop-color="#3FAE2A" offset="100%"></stop>
        </linearGradient>
        <path d="M0.24516129,49.5525556 C0.490935484,49.8733889 0.800451613,50.1483889 1.16267742,50.3573889 L23.3148387,63.1137222 L27.0026774,65.2281667 C27.5542903,65.5453333 28.1837419,65.6791667 28.8021613,65.6345556 C29.0087097,65.6174444 29.2146452,65.5795556 29.4156774,65.5208889 L56.6469677,15.8027222 C56.4385806,15.5796667 56.195871,15.3859444 55.923129,15.2295 L39.0143548,5.49755556 L30.0788387,0.370333333 C29.8232581,0.223666667 29.5492903,0.117944444 29.2679677,0.0488888889 L0.24516129,49.5525556 Z" id="path-18"></path>
        <linearGradient x1="46.5482695%" y1="52.5276219%" x2="101.410712%" y2="12.1328103%" id="linearGradient-20">
            <stop stop-color="#41873F" offset="0%"></stop>
            <stop stop-color="#41873F" offset="13.76%"></stop>
            <stop stop-color="#54A044" offset="40.32%"></stop>
            <stop stop-color="#66B848" offset="71.36%"></stop>
            <stop stop-color="#6CC04A" offset="90.81%"></stop>
            <stop stop-color="#6CC04A" offset="100%"></stop>
        </linearGradient>
        <path d="M27.4932211,0.987788991 L1.76930526,15.9337064 C0.807726316,16.4924495 0.215515789,17.5244954 0.215515789,18.6425963 L0.215515789,48.5565596 C0.215515789,49.6734312 0.807726316,50.7060917 1.76869474,51.2660642 L27.492,66.2236606 C28.4541895,66.7824037 29.6386105,66.7824037 30.6001895,66.2236606 L56.318,51.2660642 C57.2789684,50.7060917 57.8705684,49.6734312 57.8705684,48.5565596 L57.8705684,18.641367 C57.8705684,17.5244954 57.2789684,16.4924495 56.3167789,15.9337064 L30.5995789,0.987788991 C30.1190947,0.708724771 29.5824421,0.568577982 29.0464,0.568577982 C28.5097474,0.568577982 27.9737053,0.708724771 27.4932211,0.987788991" id="path-21"></path>
        <polygon id="path-23" points="0.993326316 0.411220183 0.639221053 0.614678899 1.11176842 0.614678899"></polygon>
        <linearGradient x1="-5706.97674%" y1="41.9335347%" x2="6879.19897%" y2="41.9335347%" id="linearGradient-25">
            <stop stop-color="#6CC04A" offset="0%"></stop>
            <stop stop-color="#6CC04A" offset="9.19%"></stop>
            <stop stop-color="#66B848" offset="28.64%"></stop>
            <stop stop-color="#54A044" offset="59.68%"></stop>
            <stop stop-color="#41873F" offset="86.24%"></stop>
            <stop stop-color="#41873F" offset="100%"></stop>
        </linearGradient>
        <path d="M27.3011413,0.585174312 C26.8643478,0.628201835 26.4349891,0.762816514 26.0415652,0.987788991 L0.0111521739,15.8906789 L28.0731196,66.6096789 C28.4622065,66.5537431 28.8432391,66.4246606 29.1945326,66.2236606 L55.2930978,51.2660642 C56.0991522,50.803211 56.6493261,50.0176514 56.8159891,49.128211 L28.2057065,0.636192661 C27.9944348,0.594394495 27.7794457,0.573495413 27.5644565,0.573495413 C27.4764783,0.574110092 27.3885,0.577798165 27.3011413,0.585174312" id="path-26"></path>
        <linearGradient x1="-4.51873262%" y1="49.9728198%" x2="101.733108%" y2="49.9728198%" id="linearGradient-28">
            <stop stop-color="#6CC04A" offset="0%"></stop>
            <stop stop-color="#6CC04A" offset="9.19%"></stop>
            <stop stop-color="#66B848" offset="28.64%"></stop>
            <stop stop-color="#54A044" offset="59.68%"></stop>
            <stop stop-color="#41873F" offset="86.24%"></stop>
            <stop stop-color="#41873F" offset="100%"></stop>
        </linearGradient>
        <path d="M27.4932211,0.987788991 L1.76930526,15.9337064 C0.807726316,16.4924495 0.215515789,17.5244954 0.215515789,18.6425963 L0.215515789,48.5565596 C0.215515789,49.6734312 0.807726316,50.7060917 1.76869474,51.2660642 L27.492,66.2236606 C28.4541895,66.7824037 29.6386105,66.7824037 30.6001895,66.2236606 L56.318,51.2660642 C57.2789684,50.7060917 57.8705684,49.6734312 57.8705684,48.5565596 L57.8705684,18.641367 C57.8705684,17.5244954 57.2789684,16.4924495 56.3167789,15.9337064 L30.5995789,0.987788991 C30.1190947,0.708724771 29.5824421,0.568577982 29.0464,0.568577982 C28.5097474,0.568577982 27.9737053,0.708724771 27.4932211,0.987788991" id="path-29"></path>
        <polygon id="path-31" points="0.780863158 0.995779817 0.610526316 0.702577982 0.610526316 1.0953578"></polygon>
        <linearGradient x1="-34811.828%" y1="45.28125%" x2="104.659498%" y2="45.28125%" id="linearGradient-33">
            <stop stop-color="#6CC04A" offset="0%"></stop>
            <stop stop-color="#6CC04A" offset="9.19%"></stop>
            <stop stop-color="#66B848" offset="28.64%"></stop>
            <stop stop-color="#54A044" offset="59.68%"></stop>
            <stop stop-color="#41873F" offset="86.24%"></stop>
            <stop stop-color="#41873F" offset="100%"></stop>
        </linearGradient>
        <path d="M27.4932211,0.987788991 L1.76930526,15.9337064 C0.807726316,16.4924495 0.215515789,17.5244954 0.215515789,18.6425963 L0.215515789,48.5565596 C0.215515789,49.6734312 0.807726316,50.7060917 1.76869474,51.2660642 L27.492,66.2236606 C28.4541895,66.7824037 29.6386105,66.7824037 30.6001895,66.2236606 L56.318,51.2660642 C57.2789684,50.7060917 57.8705684,49.6734312 57.8705684,48.5565596 L57.8705684,18.641367 C57.8705684,17.5244954 57.2789684,16.4924495 56.3167789,15.9337064 L30.5995789,0.987788991 C30.1190947,0.708724771 29.5824421,0.568577982 29.0464,0.568577982 C28.5097474,0.568577982 27.9737053,0.708724771 27.4932211,0.987788991" id="path-34"></path>
        <path d="M27.0774526,2.09175229 L1.32728421,17.0487339 C0.973178947,17.2546514 0.586715789,17.3837339 0.191094737,17.4378257 L0.703936842,18.3782844 L29.3052632,1.7100367 L29.3052632,1.3166422 L28.5982737,0.100192661 C28.3864211,0.929394495 27.8271789,1.6547156 27.0774526,2.09175229" id="path-36"></path>
        <linearGradient x1="-103.67186%" y1="50.088448%" x2="100.612326%" y2="50.088448%" id="linearGradient-38">
            <stop stop-color="#6CC04A" offset="0%"></stop>
            <stop stop-color="#6CC04A" offset="9.19%"></stop>
            <stop stop-color="#66B848" offset="28.64%"></stop>
            <stop stop-color="#54A044" offset="59.68%"></stop>
            <stop stop-color="#41873F" offset="86.24%"></stop>
            <stop stop-color="#41873F" offset="100%"></stop>
        </linearGradient>
        <path d="M27.4932211,0.987788991 L1.76930526,15.9337064 C0.807726316,16.4924495 0.215515789,17.5244954 0.215515789,18.6425963 L0.215515789,48.5565596 C0.215515789,49.6734312 0.807726316,50.7060917 1.76869474,51.2660642 L27.492,66.2236606 C28.4541895,66.7824037 29.6386105,66.7824037 30.6001895,66.2236606 L56.318,51.2660642 C57.2789684,50.7060917 57.8705684,49.6734312 57.8705684,48.5565596 L57.8705684,18.641367 C57.8705684,17.5244954 57.2789684,16.4924495 56.3167789,15.9337064 L30.5995789,0.987788991 C30.1190947,0.708724771 29.5824421,0.568577982 29.0464,0.568577982 C28.5097474,0.568577982 27.9737053,0.708724771 27.4932211,0.987788991" id="path-39"></path>
        <path d="M27.0774526,2.09175229 L1.32728421,17.0487339 C0.973178947,17.2546514 0.586715789,17.3837339 0.191094737,17.4378257 L0.703936842,18.3782844 L29.3052632,1.7100367 L29.3052632,1.3166422 L28.5982737,0.100192661 C28.3864211,0.929394495 27.8271789,1.6547156 27.0774526,2.09175229" id="path-41"></path>
        <linearGradient x1="103.48186%" y1="-65.3509042%" x2="19.0883275%" y2="116.417178%" id="linearGradient-43">
            <stop stop-color="#41873F" offset="0%"></stop>
            <stop stop-color="#418B3D" offset="32.88%"></stop>
            <stop stop-color="#419637" offset="63.52%"></stop>
            <stop stop-color="#3FA92D" offset="93.19%"></stop>
            <stop stop-color="#3FAE2A" offset="100%"></stop>
        </linearGradient>
    </defs>
    <g id="Home" stroke="none" stroke-width="1" fill="none" fill-rule="evenodd">
        <g id="Technologies" transform="translate(-981.000000, -2930.000000)">
            <rect id="Mask" opacity="0.970958891" x="0" y="2791" width="1447" height="609"></rect>
            <g id="nodejs-new-pantone-black" transform="translate(962.000000, 2911.000000)">
                <g id="Group">
                    <g id="Clipped">
                        <mask id="mask-2" fill="white">
                            <use xlink:href="#path-1"></use>
                        </mask>
                        <g id="SVGID_1_"></g>
                        <path d="M182.626095,267.49056 C181.728195,267.49056 180.835215,267.256245 180.049245,266.801145 L171.846375,261.947565 C170.62191,261.262455 171.21969,261.01953 171.623745,260.878695 C173.2578,260.311665 173.58867,260.18067 175.33281,259.19175 C175.514235,259.089045 175.755315,259.128405 175.94289,259.23849 L182.244795,262.979535 C182.47296,263.106225 182.79522,263.106225 183.00555,262.979535 L207.5748,248.798865 C207.80358,248.668485 207.949335,248.40465 207.949335,248.13405 L207.949335,219.78009 C207.949335,219.502725 207.80358,219.24381 207.568035,219.102975 L183.00924,204.934605 C182.782305,204.801765 182.480955,204.801765 182.252175,204.934605 L157.69953,219.10728 C157.46091,219.24381 157.30962,219.511335 157.30962,219.78009 L157.30962,248.13405 C157.30962,248.40465 157.46091,248.66172 157.69707,248.790255 L164.42763,252.6789 C168.0795,254.504835 170.31564,252.35418 170.31564,250.193685 L170.31564,222.1995 C170.31564,221.802825 170.633595,221.491635 171.029655,221.491635 L174.14463,221.491635 C174.53454,221.491635 174.8568,221.80344 174.8568,222.1995 L174.8568,250.193685 C174.8568,255.06756 172.20246,257.862735 167.581965,257.862735 C166.16193,257.862735 165.04386,257.862735 161.922735,256.32462 L155.479995,252.61617 C153.888375,251.69613 152.903145,249.975975 152.903145,248.13405 L152.903145,219.78009 C152.903145,217.938165 153.888375,216.21801 155.479995,215.302275 L180.049245,201.105 C181.603965,200.226165 183.670365,200.226165 185.212785,201.105 L209.78019,215.302275 C211.371195,216.222315 212.360115,217.938165 212.360115,219.78009 L212.360115,248.13405 C212.360115,249.975975 211.371195,251.689365 209.78019,252.61617 L185.212785,266.80053 C184.42743,267.256245 183.536295,267.49056 182.626095,267.49056" id="Path" fill="#699F63" mask="url(#mask-2)"></path>
                    </g>
                    <g id="Clipped">
                        <mask id="mask-4" fill="white">
                            <use xlink:href="#path-3"></use>
                        </mask>
                        <g id="SVGID_1_"></g>
                        <path d="M190.215195,247.95693 C179.46438,247.95693 177.211635,243.02217 177.211635,238.882605 C177.211635,238.48839 177.527745,238.17474 177.921345,238.17474 L181.09782,238.17474 C181.452675,238.17474 181.74849,238.429965 181.80384,238.776825 C182.28354,242.010495 183.713415,243.642705 190.215195,243.642705 C195.391035,243.642705 197.59458,242.471745 197.59458,239.72577 C197.59458,238.14276 196.96974,236.967495 188.926155,236.179065 C182.20359,235.51425 178.045575,234.029025 178.045575,228.65208 C178.045575,223.69395 182.223885,220.73826 189.229965,220.73826 C197.100735,220.73826 200.99553,223.469475 201.48876,229.33104 C201.50721,229.533375 201.43587,229.727715 201.301185,229.877775 C201.1665,230.01861 200.978925,230.10471 200.780895,230.10471 L197.591505,230.10471 C197.26125,230.10471 196.969125,229.86978 196.90209,229.54998 C196.137645,226.147185 194.276655,225.05925 189.22935,225.05925 C183.578115,225.05925 182.921295,227.027865 182.921295,228.503865 C182.921295,230.291055 183.696195,230.81073 191.3265,231.82056 C198.87624,232.818705 202.46292,234.231975 202.46292,239.53881 C202.46415,244.889925 198.00048,247.95693 190.215195,247.95693" id="Path" fill="#699F63" mask="url(#mask-4)"></path>
                    </g>
                    <g id="Clipped">
                        <mask id="mask-6" fill="white">
                            <use xlink:href="#path-5"></use>
                        </mask>
                        <g id="SVGID_1_"></g>
                        <path d="M225.64227,218.221065 C225.64227,220.826205 223.51191,222.95595 220.908,222.95595 C218.326845,222.95595 216.1725,220.85142 216.1725,218.221065 C216.1725,215.54028 218.37789,213.48495 220.908,213.48495 C223.463325,213.48495 225.64227,215.54028 225.64227,218.221065 Z M216.93756,218.20815 C216.93756,220.41354 218.716755,222.192735 220.8957,222.192735 C223.10109,222.192735 224.880285,220.376025 224.880285,218.20815 C224.880285,216.003375 223.07649,214.249395 220.8957,214.249395 C218.741355,214.249395 216.93756,215.97816 216.93756,218.20815 Z M219.128805,215.564265 L220.959045,215.564265 C221.58573,215.564265 222.813885,215.564265 222.813885,216.96831 C222.813885,217.945545 222.1872,218.14542 221.810205,218.27088 C222.538365,218.320695 222.587565,218.79732 222.687195,219.473205 C222.73824,219.898785 222.813885,220.62633 222.962715,220.87602 L221.83665,220.87602 C221.810205,220.62633 221.634315,219.272715 221.634315,219.197685 C221.56113,218.896335 221.45904,218.747505 221.083275,218.747505 L220.157085,218.747505 L220.157085,220.87602 L219.128805,220.87602 L219.128805,215.564265 Z M220.13187,217.8945 L220.95843,217.8945 C221.6337,217.8945 221.76039,217.41972 221.76039,217.143585 C221.76039,216.41604 221.25855,216.41604 220.98303,216.41604 L220.13187,216.41604 L220.13187,217.8945 Z" id="Shape" fill="#699F63" fill-rule="nonzero" mask="url(#mask-6)"></path>
                    </g>
                    <g id="Clipped">
                        <mask id="mask-8" fill="white">
                            <use xlink:href="#path-7"></use>
                        </mask>
                        <g id="SVGID_1_"></g>
                        <path d="M106.544445,156.558705 C106.544445,155.42649 105.94851,154.38591 104.971275,153.82503 L78.92295,138.834405 C78.48261,138.574875 77.988765,138.44019 77.489385,138.419895 L77.220015,138.419895 C76.721865,138.44019 76.228635,138.574875 75.78153,138.834405 L49.733205,153.82503 C48.76212,154.38591 48.15819,155.42649 48.15819,156.558705 L48.215385,196.92423 C48.215385,197.485725 48.506895,198.00786 49.00074,198.28338 C49.48413,198.573045 50.08191,198.573045 50.563455,198.28338 L66.044235,189.41877 C67.023315,188.837595 67.61925,187.81116 67.61925,186.6894 L67.61925,167.830425 C67.61925,166.706205 68.21457,165.665625 69.18996,165.10659 L75.78153,161.310195 C76.272915,161.02668 76.80981,160.88769 77.35839,160.88769 C77.895285,160.88769 78.44571,161.02668 78.92295,161.310195 L85.512675,165.10659 C86.488065,165.665625 87.085845,166.706205 87.085845,167.830425 L87.085845,186.6894 C87.085845,187.81116 87.689775,188.84436 88.662705,189.41877 L104.13918,198.28338 C104.624415,198.573045 105.230805,198.573045 105.711735,198.28338 C106.191435,198.00786 106.4934,197.485725 106.4934,196.92423 L106.544445,156.558705 Z" id="Path" fill="#333333" mask="url(#mask-8)"></path>
                    </g>
                    <g id="Clipped">
                        <mask id="mask-10" fill="white">
                            <use xlink:href="#path-9"></use>
                        </mask>
                        <g id="SVGID_1_"></g>
                        <path d="M231.8796,101.0691 C231.391905,100.7985 230.7972,100.804035 230.315655,101.086935 C229.835955,101.36922 229.539525,101.88582 229.539525,102.443625 L229.539525,142.418625 C229.539525,142.81161 229.329195,143.17569 228.989715,143.37249 C228.64839,143.56929 228.22896,143.56929 227.88825,143.37249 L221.363715,139.61361 C220.390785,139.052115 219.19338,139.053345 218.219835,139.614225 L192.16167,154.65282 C191.18751,155.21493 190.587885,156.253665 190.587885,157.377885 L190.587885,187.46184 C190.587885,188.58606 191.18751,189.62418 192.16044,190.18752 L218.21799,205.237185 C219.19215,205.799295 220.3914,205.799295 221.36556,205.237185 L247.427415,190.18752 C248.400345,189.62418 249.000585,188.58606 249.000585,187.46184 L249.000585,112.470585 C249.000585,111.330375 248.383125,110.278725 247.386825,109.722765 L231.8796,101.0691 Z M229.462035,177.576945 C229.462035,177.857385 229.311975,178.11753 229.068435,178.257135 L220.1208,183.414525 C219.877875,183.55413 219.57837,183.55413 219.33606,183.414525 L210.38904,178.257135 C210.144885,178.11753 209.994825,177.857385 209.994825,177.576945 L209.994825,167.24556 C209.994825,166.96512 210.14427,166.704975 210.388425,166.56414 L219.33483,161.39691 C219.57837,161.256075 219.87849,161.256075 220.12203,161.39691 L229.06905,166.56414 C229.311975,166.704975 229.462035,166.96512 229.462035,167.24556 L229.462035,177.576945 Z" id="Shape" fill="#333333" mask="url(#mask-10)"></path>
                    </g>
                    <g id="Clipped">
                        <mask id="mask-12" fill="white">
                            <use xlink:href="#path-11"></use>
                        </mask>
                        <g id="SVGID_1_"></g>
                        <path d="M318.650565,166.975575 C319.619805,166.41285 320.216355,165.37596 320.216355,164.254815 L320.216355,156.964605 C320.216355,155.84346 319.619805,154.805955 318.649335,154.24323 L292.75845,139.210785 C291.78429,138.64437 290.581965,138.643755 289.605345,139.20648 L263.556405,154.245075 C262.58286,154.807185 261.983235,155.845305 261.983235,156.969525 L261.983235,187.04487 C261.983235,188.177085 262.589625,189.220125 263.572395,189.77916 L289.45959,204.529935 C290.41407,205.074825 291.584415,205.080975 292.545045,204.54654 L308.202945,195.84429 C308.70048,195.56754 309.009825,195.046635 309.012285,194.47899 C309.015975,193.911345 308.71401,193.38675 308.222625,193.104465 L282.00825,178.05849 C281.51871,177.77805 281.21736,177.25653 281.21736,176.693805 L281.21736,167.268315 C281.21736,166.706205 281.51748,166.185915 282.005175,165.905475 L290.163765,161.201955 C290.649,160.921515 291.24924,160.921515 291.73509,161.201955 L299.896755,165.905475 C300.38445,166.185915 300.683955,166.706205 300.683955,167.268315 L300.683955,174.683985 C300.683955,175.247325 300.985305,175.767615 301.473,176.048055 C301.960695,176.329725 302.56155,176.327265 303.048015,176.04498 L318.650565,166.975575 Z" id="Path" fill="#333333" mask="url(#mask-12)"></path>
                    </g>
                    <g id="Clipped">
                        <mask id="mask-14" fill="white">
                            <use xlink:href="#path-13"></use>
                        </mask>
                        <g id="SVGID_1_"></g>
                        <path d="M290.79783,165.56661 C290.985405,165.45837 291.215415,165.45837 291.40176,165.56661 L296.40171,168.45096 C296.58867,168.5592 296.703675,168.75846 296.703675,168.974325 L296.703675,174.747945 C296.703675,174.964425 296.588055,175.16307 296.40171,175.27131 L291.40176,178.156275 C291.2148,178.264515 290.98479,178.264515 290.79783,178.156275 L285.80157,175.27131 C285.61461,175.16307 285.50022,174.964425 285.50022,174.747945 L285.50022,168.974325 C285.50022,168.75846 285.615225,168.5592 285.80157,168.45096 L290.79783,165.56661 Z" id="Path" fill="#699F63" mask="url(#mask-14)"></path>
                    </g>
                </g>
                <g id="Clipped" transform="translate(120.000000, 138.000000)">
                    <mask id="mask-16" fill="white">
                        <use xlink:href="#path-15"></use>
                    </mask>
                    <g id="SVGID_3_"></g>
                    <polygon id="Path" fill="url(#linearGradient-17)" mask="url(#mask-16)" points="83.8631158 13.3969266 46.7003789 89.7240642 -25.7770316 53.954055 11.3850947 -22.3730826"></polygon>
                </g>
                <g id="Clipped" transform="translate(120.000000, 139.000000)">
                    <mask id="mask-19" fill="white">
                        <use xlink:href="#path-18"></use>
                    </mask>
                    <g id="SVGID_6_"></g>
                    <polygon id="Path" fill="url(#linearGradient-20)" mask="url(#mask-19)" points="-31.2145484 23.2252778 36.7300645 -26.8283889 88.1066774 42.504 20.1620645 92.5576667"></polygon>
                </g>
                <g id="Clipped" transform="translate(120.000000, 138.000000)">
                    <mask id="mask-22" fill="white">
                        <use xlink:href="#path-21"></use>
                    </mask>
                    <g id="SVGID_9_"></g>
                    <g mask="url(#mask-22)">
                        <g transform="translate(25.642105, -4.917431)">
                            <mask id="mask-24" fill="white">
                                <use xlink:href="#path-23"></use>
                            </mask>
                            <g id="SVGID_11_" stroke="none" fill="none"></g>
                            <rect id="Rectangle" stroke="none" fill="url(#linearGradient-25)" fill-rule="evenodd" mask="url(#mask-24)" x="0.639221053" y="0.411220183" width="1" height="1"></rect>
                        </g>
                    </g>
                </g>
                <g id="Clipped" transform="translate(121.000000, 138.000000)">
                    <mask id="mask-27" fill="white">
                        <use xlink:href="#path-26"></use>
                    </mask>
                    <g id="SVGID_14_"></g>
                    <rect id="Rectangle" fill="url(#linearGradient-28)" mask="url(#mask-27)" x="0.0111521739" y="0.574110092" width="56.804837" height="66.0355688"></rect>
                </g>
                <g id="Clipped" transform="translate(120.000000, 138.000000)">
                    <mask id="mask-30" fill="white">
                        <use xlink:href="#path-29"></use>
                    </mask>
                    <g id="SVGID_17_"></g>
                    <g mask="url(#mask-30)">
                        <g transform="translate(58.000000, 49.788991)">
                            <mask id="mask-32" fill="white">
                                <use xlink:href="#path-31"></use>
                            </mask>
                            <g id="SVGID_19_" stroke="none" fill="none"></g>
                            <rect id="Rectangle" stroke="none" fill="url(#linearGradient-33)" fill-rule="evenodd" mask="url(#mask-32)" x="0.610526316" y="0.702577982" width="1" height="1"></rect>
                        </g>
                    </g>
                </g>
                <g id="Clipped" transform="translate(120.000000, 138.000000)">
                    <mask id="mask-35" fill="white">
                        <use xlink:href="#path-34"></use>
                    </mask>
                    <g id="SVGID_22_"></g>
                    <g mask="url(#mask-35)">
                        <g transform="translate(29.305263, 49.174312)">
                            <mask id="mask-37" fill="white">
                                <use xlink:href="#path-36"></use>
                            </mask>
                            <g id="SVGID_24_" stroke="none" fill="none"></g>
                            <rect id="Rectangle" stroke="none" fill="url(#linearGradient-38)" fill-rule="evenodd" mask="url(#mask-37)" x="0.191094737" y="0.100807339" width="29.1141684" height="18.2774771"></rect>
                        </g>
                    </g>
                </g>
                <g id="Clipped" transform="translate(120.000000, 138.000000)">
                    <mask id="mask-40" fill="white">
                        <use xlink:href="#path-39"></use>
                    </mask>
                    <g id="SVGID_27_"></g>
                    <g mask="url(#mask-40)">
                        <g transform="translate(29.305263, 49.174312)">
                            <mask id="mask-42" fill="white">
                                <use xlink:href="#path-41"></use>
                            </mask>
                            <g id="SVGID_29_" stroke="none" fill="none"></g>
                            <polygon id="Path" stroke="none" fill="url(#linearGradient-43)" fill-rule="evenodd" mask="url(#mask-42)" points="36.4801684 3.64197248 23.6646105 29.9631376 -6.98381053 14.8377339 5.83174737 -11.4840459"></polygon>
                        </g>
                    </g>
                </g>
            </g>
        </g>
    </g>
</svg>